name C:\Users\u0101727\Documents\MyRepositories\upper-imu-dc\Results\main_tracking\Case_24\kinematics.mot
datacolumns 10
datarows 23
range 2.38000000 2.60000000
endheader 
time	clav_prot	clav_elev	scapula_abduction	scapula_elevation	scapula_upward_rot	scapula_winging	plane_elv	shoulder_elv	axial_rot	
          2.38000000	        -20.70659594	         -2.81116408	         -6.55123437	         -4.07657211	         18.08003457	          3.51377988	        -16.08597521	         14.72246484	         38.95264992	
          2.39000000	        -20.48307869	         -2.96224984	         -6.19921481	         -4.14807620	         17.95581435	          3.56889289	        -16.03813665	         14.96637146	         39.02415465	
          2.40000000	        -20.79278090	         -3.10034900	         -6.66612151	         -4.28473826	         18.01769613	          3.62574355	        -16.15202817	         15.08843700	         38.90089544	
          2.41000000	        -21.32503506	         -3.24741521	         -7.43827356	         -4.47168440	         18.20634055	          3.66967508	        -16.31136980	         15.09939768	         38.65746797	
          2.42000000	        -21.60025886	         -3.38588626	         -7.84210155	         -4.60745428	         18.26989296	          3.71835510	        -16.23328477	         15.14236179	         38.36681694	
          2.43000000	        -21.18817011	         -3.51734692	         -7.23089977	         -4.62955285	         18.04744142	          3.78517921	        -15.88076222	         15.33430319	         38.07934818	
          2.44000000	        -20.99809700	         -3.64691793	         -6.97037774	         -4.67691962	         17.88277947	          3.85215279	        -15.61967802	         15.41515536	         37.83896993	
          2.45000000	        -21.08059398	         -3.80923505	         -7.06005712	         -4.80969536	         17.90438037	          3.90756558	        -15.65270009	         15.28856433	         37.67870816	
          2.46000000	        -21.05596918	         -3.94997299	         -7.00775769	         -4.90503246	         17.86376314	          3.96256610	        -15.86388005	         15.15766760	         37.63344908	
          2.47000000	        -20.28814168	         -4.04346647	         -5.94601454	         -4.81602102	         17.38331825	          4.03569549	        -15.89968889	         15.32863268	         37.69969662	
          2.48000000	        -19.14278210	         -4.08591265	         -4.38933316	         -4.60474646	         16.64662875	          4.08399889	        -15.81824704	         15.65458555	         37.87367514	
          2.49000000	        -18.25353046	         -4.10636856	         -3.25896087	         -4.39710863	         15.93917804	          4.12428958	        -15.77720920	         15.92168686	         38.11207949	
          2.50000000	        -17.65098184	         -4.12978827	         -2.54730570	         -4.23754011	         15.35877150	          4.16678864	        -15.79671390	         16.07782080	         38.35964432	
          2.51000000	        -17.28384932	         -4.15640819	         -2.15993243	         -4.12735556	         14.91937349	          4.21296003	        -15.85774557	         16.14000720	         38.56662966	
          2.52000000	        -17.09074723	         -4.17788685	         -2.00313110	         -4.05341535	         14.60489879	          4.25907232	        -15.93530474	         16.14501408	         38.69849057	
          2.53000000	        -17.02847772	         -4.18829006	         -2.01461185	         -4.00469943	         14.39711187	          4.30175631	        -16.01180058	         16.12371275	         38.74590431	
          2.54000000	        -17.08665915	         -4.18940550	         -2.17993605	         -3.98078800	         14.29014993	          4.34156410	        -16.08268631	         16.08811369	         38.72625643	
          2.55000000	        -17.29285076	         -4.19149392	         -2.53842460	         -3.99414607	         14.29591768	          4.38357197	        -16.15738320	         16.02705552	         38.67595535	
          2.56000000	        -17.70952402	         -4.21001489	         -3.17951843	         -4.06701646	         14.44201763	          4.43479920	        -16.25777296	         15.90866709	         38.63769535	
          2.57000000	        -18.42075288	         -4.25707061	         -4.22789080	         -4.22103341	         14.75901991	          4.49804633	        -16.41471078	         15.69172323	         38.64909557	
          2.58000000	        -19.50725285	         -4.32630434	         -5.81996293	         -4.45676388	         15.24972036	          4.56363657	        -16.65774216	         15.35188205	         38.73601555	
          2.59000000	        -20.97431998	         -4.37554925	         -8.02823023	         -4.71764947	         15.81192069	          4.60753589	        -16.97224323	         14.94886487	         38.91874135	
          2.60000000	        -21.74285537	         -4.40961777	         -9.17219148	         -4.86345454	         16.11426064	          4.60577349	        -17.16324927	         14.73231176	         39.19758212	
